<?xml version="1.0" encoding="UTF-8"?>
<svg xmlns="http://www.w3.org/2000/svg" version="1.1" viewBox="0 0 1500 1500">
  <defs>
    <style>
      .cls-1 {
        font-family: Figtree-Light, Figtree;
        font-size: 33.93px;
        font-weight: 300;
        letter-spacing: .6em;
      }

      .cls-1, .cls-2, .cls-3, .cls-4, .cls-5 {
        fill: #fff;
      }

      .cls-2 {
        font-family: Arial-BoldMT, Arial;
        font-size: 116.33px;
        font-weight: 700;
        letter-spacing: .04em;
      }

      .cls-6, .cls-7, .cls-8 {
        fill: #231f20;
      }

      .cls-7, .cls-8, .cls-4, .cls-5 {
        stroke-miterlimit: 10;
      }

      .cls-7, .cls-5 {
        stroke: #fff;
      }

      .cls-8 {
        stroke: #000;
      }

      .cls-4 {
        stroke: #231f20;
      }

      .cls-5 {
        font-family: Arial-Black, 'Arial Black';
        font-size: 155.86px;
        font-weight: 800;
      }
    </style>
  </defs>
  <!-- Generator: Adobe Illustrator 28.6.0, SVG Export Plug-In . SVG Version: 1.2.0 Build 709)  -->
  <g>
    <g id="Layer_1">
      <g>
        <rect class="cls-8" width="1500" height="1500"/>
        <g>
          <g>
            <g>
              <text/>
              <g>
                <text class="cls-5" transform="translate(765.76 741.44) rotate(-180) scale(1.03 -1)"><tspan x="0" y="0">R</tspan></text>
                <text class="cls-5" transform="translate(706.06 741.44) scale(1.03 1)"><tspan x="0" y="0">B</tspan></text>
              </g>
            </g>
            <path class="cls-4" d="M732.71,736.11c-.49-1.32-1.59-8.77-9.86-18.66-1.83-2.19,3.5-3.89,3.41-17.52,0-.22,3.82.02,7.73,0,3.83-.02,8.09-.3,8.06.02-.27,2.55,2.76,16.98,3.42,16.84.01,0-2.86,3.5-5.76,8.63-.03.06-.06.11-.08.17-.41,1.03-4.3,10.82-4.32,10.7-.12-.69-.2-10.41-.17-15.94,0-1.14,4.58-2.06,2.77-5.79-.91-1.88-3.71-3.47-5.94-2.07-1.79,1.13-2.04,3.64-1.46,5.21.51,1.38,2.55,1.63,2.49,2.47-.38,5.13.03,16.75-.27,15.93Z"/>
            <polygon class="cls-7" points="725.76 691.57 725.8 697.1 742.19 697.14 742.15 691.61 725.76 691.57"/>
          </g>
          <text class="cls-2" transform="translate(461.94 846.9)"><tspan x="0" y="0">RESUME</tspan></text>
          <text class="cls-1" transform="translate(606.38 897.29)"><tspan x="0" y="0">BUILDER</tspan></text>
        </g>
        <g>
          <path class="cls-3" d="M795.41,624.74h0c0,1.14-1.01,2.07-2.26,2.07h-114.41c-1.25,0-2.26-.93-2.26-2.07h0c0-1.14,1.01-2.07,2.26-2.07h114.41c1.25,0,2.26.93,2.26,2.07Z"/>
          <path class="cls-3" d="M785.5,616.47h0c0,1.14-1.01,2.07-2.26,2.07h-94.59c-1.25,0-2.26-.93-2.26-2.07h0c0-1.14,1.01-2.07,2.26-2.07h94.59c1.25,0,2.26.93,2.26,2.07Z"/>
          <path class="cls-3" d="M775.59,608.19h0c0,1.14-1.01,2.07-2.26,2.07h-74.77c-1.25,0-2.26-.93-2.26-2.07h0c0-1.14,1.01-2.07,2.26-2.07h74.77c1.25,0,2.26.93,2.26,2.07Z"/>
          <g>
            <path class="cls-6" d="M765.68,599.92h0c0,1.14-1.01,2.07-2.26,2.07h-54.95c-1.25,0-2.26-.93-2.26-2.07h0c0-1.14,1.01-2.07,2.26-2.07h54.95c1.25,0,2.26.93,2.26,2.07Z"/>
            <path class="cls-3" d="M765.68,599.92h0c0,1.14-1.01,2.07-2.26,2.07h-54.95c-1.25,0-2.26-.93-2.26-2.07h0c0-1.14,1.01-2.07,2.26-2.07h54.95c1.25,0,2.26.93,2.26,2.07Z"/>
          </g>
        </g>
      </g>
    </g>
  </g>
</svg>